<?xml version="1.0" encoding="utf-8"?>
<svg viewBox="0 0 607 739" xmlns="http://www.w3.org/2000/svg">
  <g transform="matrix(0.10000000149011612, 0, 0, -0.10000000149011612, 0, 739)" fill="#000000" stroke="none">
    <path d="M2336 7204 c-20 -19 -20 -34 0 -62 18 -26 46 -28 68 -6 31 30 9 84 -34 84 -10 0 -26 -7 -34 -16z"/>
    <path d="M2616 7204 c-9 -8 -16 -23 -16 -33 0 -21 30 -51 52 -51 19 0 48 32 48 53 0 21 -27 47 -50 47 -10 0 -26 -7 -34 -16z"/>
    <path d="M2196 7104 c-21 -21 -20 -40 4 -64 25 -25 42 -25 63 -2 46 51 -19 115 -67 66z"/>
    <path d="M2468 7096 c-14 -31 -5 -53 27 -68 21 -9 28 -8 45 7 39 35 20 85 -32 85 -20 0 -32 -7 -40 -24z"/>
    <path d="M2749 7096 c-15 -32 -6 -53 26 -68 22 -10 29 -9 47 10 18 18 20 26 12 49 -7 22 -17 29 -42 31 -26 3 -34 -1 -43 -22z"/>
    <path d="M2056 7004 c-21 -21 -20 -40 4 -64 24 -24 29 -24 58 -4 24 17 29 53 10 72 -17 17 -54 15 -72 -4z"/>
    <path d="M2330 7000 c-14 -26 -5 -57 21 -71 43 -23 92 44 57 79 -20 20 -66 15 -78 -8z"/>
    <path d="M2610 7001 c-16 -31 -12 -49 15 -67 23 -15 27 -15 50 0 27 18 33 54 13 74 -19 19 -66 15 -78 -7z"/>
    <path d="M2892 7008 c-20 -20 -14 -56 13 -74 23 -15 27 -15 50 0 44 29 28 86 -25 86 -14 0 -31 -5 -38 -12z"/>
    <path d="M1933 6920 c-48 -19 -36 -90 16 -90 16 0 34 7 41 14 29 36 -13 93 -57 76z"/>
    <path d="M2189 6899 c-17 -33 3 -69 39 -69 33 0 52 16 52 45 0 29 -19 45 -52 45 -18 0 -31 -7 -39 -21z"/>
    <path d="M2469 6899 c-17 -33 3 -69 39 -69 33 0 52 16 52 45 0 29 -19 45 -52 45 -18 0 -31 -7 -39 -21z"/>
    <path d="M2752 6908 c-7 -7 -12 -21 -12 -33 0 -28 19 -45 50 -45 31 0 50 17 50 45 0 28 -19 45 -50 45 -14 0 -31 -5 -38 -12z"/>
    <path d="M3032 6908 c-16 -16 -15 -53 2 -67 8 -7 27 -11 43 -9 34 4 54 47 33 72 -15 19 -61 21 -78 4z"/>
    <path d="M3312 6908 c-7 -7 -12 -21 -12 -33 0 -29 19 -45 52 -45 36 0 56 36 39 69 -13 23 -59 29 -79 9z"/>
    <path d="M1780 6810 c-24 -24 -24 -29 -4 -58 27 -39 84 -23 84 23 0 23 -28 55 -48 55 -7 0 -21 -9 -32 -20z"/>
    <path d="M2060 6810 c-23 -23 -24 -33 -10 -61 12 -22 59 -26 78 -7 18 18 15 53 -6 71 -24 22 -38 21 -62 -3z"/>
    <path d="M2340 6810 c-23 -23 -24 -33 -10 -61 12 -22 59 -26 78 -7 18 18 15 53 -6 71 -24 22 -38 21 -62 -3z"/>
    <path d="M2619 6811 c-20 -16 -22 -23 -14 -47 18 -51 95 -42 95 11 0 22 -28 55 -47 55 -6 0 -21 -9 -34 -19z"/>
    <path d="M2902 6814 c-12 -8 -22 -26 -22 -38 0 -54 77 -64 95 -12 8 24 6 31 -14 47 -28 23 -31 23 -59 3z"/>
    <path d="M3182 6814 c-12 -8 -22 -26 -22 -38 0 -54 77 -64 95 -12 8 24 6 31 -14 47 -28 23 -31 23 -59 3z"/>
    <path d="M1368 6718 c-24 -20 -28 -44 -12 -67 17 -23 53 -28 72 -9 19 19 15 66 -7 78 -25 13 -34 13 -53 -2z"/>
    <path d="M1640 6710 c-24 -24 -24 -29 -4 -58 17 -24 53 -29 72 -10 19 19 15 66 -7 78 -28 14 -38 13 -61 -10z"/>
    <path d="M1916 6708 c-21 -29 -20 -41 2 -61 35 -32 82 -15 82 29 0 50 -57 71 -84 32z"/>
    <path d="M2194 6705 c-20 -31 -10 -63 23 -71 33 -9 57 6 61 38 6 53 -55 77 -84 33z"/>
    <path d="M2475 6710 c-15 -16 -17 -26 -9 -48 8 -22 15 -27 44 -27 29 0 36 5 44 27 8 22 6 32 -9 48 -10 11 -26 20 -35 20 -9 0 -25 -9 -35 -20z"/>
    <path d="M2755 6710 c-20 -22 -14 -67 10 -77 28 -10 64 6 71 33 7 28 -18 64 -46 64 -9 0 -25 -9 -35 -20z"/>
    <path d="M3036 6711 c-35 -39 -4 -90 47 -77 35 8 46 49 22 76 -23 25 -47 25 -69 1z"/>
    <path d="M3315 6714 c-19 -20 -16 -63 6 -77 23 -14 67 0 74 24 8 26 -19 69 -45 69 -10 0 -26 -7 -35 -16z"/>
    <path d="M948 6619 c-21 -12 -24 -59 -6 -77 20 -20 56 -14 74 13 15 23 15 27 0 50 -17 26 -40 31 -68 14z"/>
    <path d="M1494 6605 c-15 -23 -15 -27 0 -50 29 -44 86 -28 86 25 0 53 -57 69 -86 25z"/>
    <path d="M1774 6605 c-15 -23 -15 -27 0 -50 29 -44 86 -28 86 25 0 53 -57 69 -86 25z"/>
    <path d="M2054 6605 c-15 -23 -15 -27 0 -50 28 -42 86 -28 86 21 0 52 -58 71 -86 29z"/>
    <path d="M2337 6612 c-22 -24 -21 -45 1 -65 49 -45 113 20 66 67 -21 21 -47 20 -67 -2z"/>
    <path d="M2615 6610 c-22 -24 -13 -66 15 -75 52 -16 90 36 55 75 -10 11 -26 20 -35 20 -9 0 -25 -9 -35 -20z"/>
    <path d="M2896 6614 c-31 -30 -9 -84 34 -84 24 0 50 26 50 49 0 22 -30 51 -53 51 -8 0 -23 -7 -31 -16z"/>
    <path d="M3176 6614 c-19 -18 -21 -55 -4 -72 18 -18 53 -15 71 6 22 24 21 45 -1 65 -23 21 -46 22 -66 1z"/>
    <path d="M802 6518 c-19 -19 -15 -66 7 -78 31 -16 49 -12 67 15 15 23 15 27 0 50 -18 27 -54 33 -74 13z"/>
    <path d="M1082 6518 c-22 -22 -15 -67 12 -80 29 -13 51 -6 65 20 23 42 -43 94 -77 60z"/>
    <path d="M1354 6505 c-15 -23 -15 -27 0 -50 29 -44 86 -28 86 25 0 53 -57 69 -86 25z"/>
    <path d="M1634 6505 c-15 -23 -15 -27 0 -50 29 -44 86 -28 86 25 0 53 -57 69 -86 25z"/>
    <path d="M1914 6505 c-15 -23 -15 -27 0 -50 27 -42 86 -26 86 23 0 55 -56 72 -86 27z"/>
    <path d="M2194 6509 c-17 -19 -17 -23 -3 -47 17 -32 50 -39 73 -17 20 21 21 49 0 69 -21 22 -47 20 -70 -5z"/>
    <path d="M2476 6514 c-21 -21 -20 -47 2 -67 23 -21 46 -22 66 -1 31 30 9 84 -34 84 -10 0 -26 -7 -34 -16z"/>
    <path d="M2756 6514 c-30 -30 -9 -84 33 -84 22 0 51 30 51 53 0 21 -27 47 -50 47 -10 0 -26 -7 -34 -16z"/>
    <path d="M3038 6519 c-36 -20 -12 -89 31 -89 10 0 25 8 34 18 42 47 -10 103 -65 71z"/>
    <path d="M3311 6516 c-38 -46 25 -111 69 -71 25 23 26 47 2 68 -23 21 -56 22 -71 3z"/>
    <path d="M382 6418 c-27 -27 0 -88 40 -88 19 0 48 32 48 53 0 38 -61 62 -88 35z"/>
    <path d="M662 6418 c-28 -28 -2 -88 38 -88 19 0 50 35 50 57 0 34 -62 57 -88 31z"/>
    <path d="M942 6418 c-7 -7 -12 -24 -12 -40 0 -50 66 -62 91 -17 23 43 -44 92 -79 57z"/>
    <path d="M1222 6418 c-20 -20 -14 -66 9 -79 33 -17 69 3 69 39 0 33 -16 52 -45 52 -12 0 -26 -5 -33 -12z"/>
    <path d="M1495 6406 c-13 -19 -14 -29 -6 -45 25 -45 91 -33 91 17 0 54 -56 72 -85 28z"/>
    <path d="M1775 6407 c-18 -27 -12 -53 17 -68 27 -15 57 -2 64 28 14 55 -50 87 -81 40z"/>
    <path d="M2054 6405 c-15 -23 -15 -27 0 -50 28 -42 86 -23 86 29 0 49 -58 63 -86 21z"/>
    <path d="M2328 6405 c-9 -19 -8 -29 6 -50 19 -29 46 -32 69 -7 34 38 15 82 -35 82 -20 0 -32 -7 -40 -25z"/>
    <path d="M2611 6411 c-16 -28 -14 -46 7 -64 25 -22 45 -21 67 3 15 16 17 26 9 48 -12 35 -67 44 -83 13z"/>
    <path d="M2892 6418 c-27 -27 0 -88 40 -88 19 0 48 32 48 53 0 38 -61 62 -88 35z"/>
    <path d="M3172 6418 c-27 -27 0 -88 40 -88 19 0 48 32 48 53 0 38 -61 62 -88 35z"/>
    <path d="M3452 6418 c-28 -28 0 -88 41 -88 17 0 47 36 47 57 0 34 -62 57 -88 31z"/>
    <path d="M242 6318 c-20 -20 -14 -56 13 -74 23 -15 27 -15 50 0 27 18 31 36 15 67 -12 22 -59 26 -78 7z"/>
    <path d="M522 6318 c-19 -19 -14 -55 10 -72 12 -9 26 -16 30 -16 13 0 48 39 48 54 0 37 -61 61 -88 34z"/>
    <path d="M802 6318 c-26 -26 0 -88 36 -88 17 0 52 37 52 54 0 37 -61 61 -88 34z"/>
    <path d="M1082 6318 c-18 -18 -14 -53 8 -73 17 -15 24 -16 45 -7 24 11 30 27 25 62 -4 29 -55 41 -78 18z"/>
    <path d="M1357 6309 c-30 -42 12 -92 59 -70 27 12 33 58 12 79 -19 19 -55 14 -71 -9z"/>
    <path d="M1635 6306 c-19 -29 -8 -61 26 -71 41 -13 78 52 47 83 -20 20 -56 14 -73 -12z"/>
    <path d="M1916 6314 c-21 -21 -20 -40 4 -64 24 -24 29 -24 58 -4 24 17 29 53 10 72 -17 17 -54 15 -72 -4z"/>
    <path d="M2190 6310 c-14 -26 -5 -57 21 -71 43 -23 92 44 57 79 -20 20 -66 15 -78 -8z"/>
    <path d="M2470 6310 c-14 -26 -5 -57 21 -71 43 -23 92 44 57 79 -20 20 -66 15 -78 -8z"/>
    <path d="M2752 6318 c-20 -20 -14 -56 13 -74 23 -15 27 -15 50 0 44 29 28 86 -25 86 -14 0 -31 -5 -38 -12z"/>
    <path d="M3032 6318 c-20 -20 -14 -56 13 -74 23 -15 27 -15 50 0 27 18 31 36 15 67 -12 22 -59 26 -78 7z"/>
    <path d="M3312 6318 c-35 -35 14 -102 57 -79 45 25 33 91 -17 91 -16 0 -33 -5 -40 -12z"/>
    <path d="M382 6218 c-15 -15 -15 -51 0 -66 7 -7 25 -12 40 -12 36 0 56 36 39 69 -13 23 -59 29 -79 9z"/>
    <path d="M662 6218 c-15 -15 -15 -51 0 -66 7 -7 25 -12 40 -12 36 0 56 36 39 69 -13 23 -59 29 -79 9z"/>
    <path d="M942 6218 c-15 -15 -15 -51 0 -66 7 -7 25 -12 40 -12 36 0 56 36 39 69 -13 23 -59 29 -79 9z"/>
    <path d="M1216 6208 c-27 -38 9 -77 59 -64 20 5 25 12 25 40 0 49 -55 65 -84 24z"/>
    <path d="M1497 6209 c-20 -28 -10 -58 21 -66 31 -7 56 7 60 36 7 48 -53 70 -81 30z"/>
    <path d="M1770 6204 c-14 -36 3 -64 38 -64 33 0 52 16 52 45 0 29 -19 45 -52 45 -21 0 -31 -6 -38 -26z"/>
    <path d="M2049 6209 c-17 -33 3 -69 39 -69 33 0 52 16 52 45 0 29 -19 45 -52 45 -18 0 -31 -7 -39 -21z"/>
    <path d="M2329 6209 c-17 -33 3 -69 39 -69 33 0 52 16 52 45 0 29 -19 45 -52 45 -18 0 -31 -7 -39 -21z"/>
    <path d="M2612 6218 c-7 -7 -12 -21 -12 -33 0 -28 19 -45 50 -45 31 0 50 17 50 45 0 28 -19 45 -50 45 -14 0 -31 -5 -38 -12z"/>
    <path d="M2892 6218 c-7 -7 -12 -21 -12 -33 0 -28 19 -45 50 -45 31 0 50 17 50 45 0 28 -19 45 -50 45 -14 0 -31 -5 -38 -12z"/>
    <path d="M532 6124 c-24 -17 -29 -53 -10 -72 19 -19 66 -15 78 7 14 28 13 38 -10 61 -24 24 -29 24 -58 4z"/>
    <path d="M812 6124 c-24 -17 -29 -53 -10 -72 27 -27 88 -3 88 34 0 15 -35 54 -48 54 -4 0 -18 -7 -30 -16z"/>
    <path d="M1092 6124 c-24 -17 -29 -53 -10 -72 14 -14 47 -15 67 -3 20 13 17 62 -5 78 -23 16 -25 16 -52 -3z"/>
    <path d="M1374 6130 c-45 -17 -29 -90 20 -90 31 0 48 22 44 56 -3 31 -32 45 -64 34z"/>
    <path d="M1640 6120 c-24 -24 -24 -29 -4 -58 17 -24 53 -29 72 -10 19 19 14 55 -10 72 -29 20 -34 20 -58 -4z"/>
    <path d="M1920 6120 c-24 -24 -25 -43 -4 -64 18 -19 55 -21 72 -4 19 19 14 55 -10 72 -29 20 -34 20 -58 -4z"/>
    <path d="M2200 6120 c-23 -23 -24 -33 -10 -61 12 -22 59 -26 78 -7 19 19 14 55 -10 72 -29 20 -34 20 -58 -4z"/>
    <path d="M2480 6120 c-23 -23 -24 -33 -10 -61 12 -22 59 -26 78 -7 19 19 14 55 -10 72 -29 20 -34 20 -58 -4z"/>
    <path d="M2762 6124 c-41 -29 -23 -84 28 -84 32 0 50 17 50 46 0 20 -32 54 -50 54 -3 0 -16 -7 -28 -16z"/>
    <path d="M386 6021 c-35 -39 -4 -90 47 -77 38 9 48 53 17 78 -28 23 -43 23 -64 -1z"/>
    <path d="M666 6024 c-19 -18 -21 -55 -4 -72 27 -27 88 -3 88 34 0 18 -36 54 -54 54 -8 0 -22 -7 -30 -16z"/>
    <path d="M948 6029 c-21 -12 -24 -59 -6 -77 19 -19 55 -14 72 10 20 29 20 34 -4 58 -22 22 -37 24 -62 9z"/>
    <path d="M1228 6028 c-24 -20 -28 -44 -12 -67 17 -23 53 -28 72 -9 19 19 15 66 -7 78 -25 13 -34 13 -53 -2z"/>
    <path d="M1500 6020 c-24 -24 -24 -29 -4 -58 17 -24 53 -29 72 -10 19 19 15 66 -7 78 -28 14 -38 13 -61 -10z"/>
    <path d="M1780 6020 c-24 -24 -24 -29 -4 -58 17 -24 53 -29 72 -10 17 17 15 54 -4 72 -21 21 -40 20 -64 -4z"/>
    <path d="M2060 6020 c-24 -24 -25 -43 -4 -64 18 -19 55 -21 72 -4 18 18 15 53 -6 71 -24 22 -38 21 -62 -3z"/>
    <path d="M2340 6020 c-24 -24 -25 -43 -4 -64 18 -19 55 -21 72 -4 18 18 15 53 -6 71 -24 22 -38 21 -62 -3z"/>
    <path d="M2620 6022 c-31 -25 -21 -69 17 -78 51 -13 82 38 47 77 -21 24 -36 24 -64 1z"/>
    <path d="M246 5924 c-31 -30 -9 -84 34 -84 24 0 50 26 50 49 0 22 -30 51 -53 51 -8 0 -23 -7 -31 -16z"/>
    <path d="M526 5924 c-19 -18 -21 -55 -4 -72 18 -18 53 -15 71 6 22 24 21 45 -1 65 -23 21 -46 22 -66 1z"/>
    <path d="M808 5929 c-21 -12 -24 -59 -6 -77 20 -20 56 -14 74 13 15 23 15 27 0 50 -17 26 -40 31 -68 14z"/>
    <path d="M1088 5929 c-21 -12 -24 -59 -6 -77 20 -20 56 -14 74 13 15 23 15 27 0 50 -17 26 -40 31 -68 14z"/>
    <path d="M1360 5920 c-24 -24 -24 -29 -4 -58 17 -24 53 -29 72 -10 19 19 15 66 -7 78 -28 14 -38 13 -61 -10z"/>
    <path d="M1634 5915 c-15 -23 -15 -27 0 -50 30 -45 86 -28 86 27 0 49 -59 65 -86 23z"/>
    <path d="M1914 5915 c-15 -23 -15 -27 0 -50 28 -42 86 -28 86 21 0 52 -58 71 -86 29z"/>
    <path d="M2196 5918 c-21 -29 -20 -41 2 -61 35 -32 82 -15 82 29 0 50 -57 71 -84 32z"/>
    <path d="M2475 5920 c-35 -39 3 -91 55 -75 28 9 37 51 15 75 -10 11 -26 20 -35 20 -9 0 -25 -9 -35 -20z"/>
    <path d="M2755 5920 c-22 -24 -13 -66 15 -75 52 -16 90 36 55 75 -10 11 -26 20 -35 20 -9 0 -25 -9 -35 -20z"/>
    <path d="M380 5819 c-28 -52 28 -102 70 -64 25 23 25 47 2 68 -25 23 -59 21 -72 -4z"/>
    <path d="M661 5826 c-38 -46 25 -111 69 -71 25 23 26 47 2 68 -23 21 -56 22 -71 3z"/>
    <path d="M942 5828 c-15 -15 -15 -61 0 -76 20 -20 56 -14 74 13 15 23 15 27 0 50 -18 27 -54 33 -74 13z"/>
    <path d="M1216 5819 c-22 -33 0 -79 38 -79 29 0 46 18 46 50 0 50 -55 69 -84 29z"/>
    <path d="M1494 5815 c-15 -23 -15 -27 0 -50 29 -44 86 -28 86 25 0 53 -57 69 -86 25z"/>
    <path d="M1774 5815 c-15 -23 -15 -27 0 -50 27 -42 86 -26 86 23 0 55 -56 72 -86 27z"/>
    <path d="M2054 5815 c-15 -23 -15 -27 0 -50 19 -29 47 -32 70 -9 19 18 20 38 6 65 -15 27 -56 24 -76 -6z"/>
    <path d="M2334 5819 c-17 -19 -17 -23 -3 -47 17 -32 50 -39 73 -17 20 21 21 49 0 69 -21 22 -47 20 -70 -5z"/>
    <path d="M2616 5824 c-31 -30 -9 -84 34 -84 24 0 50 26 50 50 0 24 -26 50 -50 50 -10 0 -26 -7 -34 -16z"/>
    <path d="M240 5721 c-5 -11 -10 -26 -10 -34 0 -18 32 -47 52 -47 19 0 48 32 48 53 0 42 -70 64 -90 28z"/>
    <path d="M522 5728 c-28 -28 -3 -88 37 -88 21 0 51 30 51 52 0 36 -62 62 -88 36z"/>
    <path d="M802 5728 c-19 -19 -15 -66 7 -78 31 -16 49 -12 67 15 15 23 15 27 0 50 -18 27 -54 33 -74 13z"/>
    <path d="M1082 5728 c-20 -20 -14 -66 9 -79 33 -17 69 3 69 39 0 33 -16 52 -45 52 -12 0 -26 -5 -33 -12z"/>
    <path d="M1355 5716 c-13 -19 -14 -29 -6 -45 25 -45 91 -33 91 17 0 54 -56 72 -85 28z"/>
    <path d="M1635 5716 c-13 -19 -14 -29 -6 -45 25 -45 91 -33 91 17 0 54 -56 72 -85 28z"/>
    <path d="M1914 5715 c-15 -23 -15 -27 0 -50 28 -42 86 -23 86 29 0 49 -58 63 -86 21z"/>
    <path d="M2196 5725 c-21 -21 -20 -38 2 -65 37 -46 106 9 75 59 -14 22 -57 25 -77 6z"/>
    <path d="M2471 5721 c-16 -28 -14 -46 7 -64 25 -22 45 -21 67 3 15 16 17 26 9 48 -12 35 -67 44 -83 13z"/>
    <path d="M2751 5721 c-16 -28 -14 -46 7 -64 25 -22 45 -21 67 3 15 16 17 26 9 48 -12 35 -67 44 -83 13z"/>
    <path d="M382 5628 c-18 -18 -14 -53 8 -73 17 -15 24 -16 45 -7 32 15 41 37 27 68 -13 27 -58 34 -80 12z"/>
    <path d="M662 5628 c-26 -26 0 -88 36 -88 17 0 52 37 52 54 0 37 -61 61 -88 34z"/>
    <path d="M942 5628 c-20 -20 -14 -66 9 -79 27 -14 65 1 74 31 13 42 -51 80 -83 48z"/>
    <path d="M1217 5619 c-30 -42 12 -92 59 -70 27 12 33 58 12 79 -19 19 -55 14 -71 -9z"/>
    <path d="M1495 5616 c-13 -19 -14 -29 -6 -45 25 -45 91 -33 91 17 0 54 -56 72 -85 28z"/>
    <path d="M1775 5617 c-18 -27 -12 -53 17 -68 27 -15 57 -2 64 28 14 55 -50 87 -81 40z"/>
    <path d="M2050 5620 c-15 -28 -4 -59 26 -72 19 -9 28 -8 44 7 22 20 26 55 8 73 -20 20 -66 15 -78 -8z"/>
    <path d="M2330 5620 c-15 -28 -4 -59 26 -72 19 -9 28 -8 44 7 22 20 26 55 8 73 -20 20 -66 15 -78 -8z"/>
    <path d="M2608 5616 c-14 -31 -5 -53 27 -68 21 -9 28 -8 45 7 39 35 20 85 -32 85 -20 0 -32 -7 -40 -24z"/>
    <path d="M242 5528 c-20 -20 -14 -56 13 -74 23 -15 27 -15 50 0 27 18 31 36 15 67 -12 22 -59 26 -78 7z"/>
    <path d="M522 5528 c-35 -35 14 -102 57 -79 45 25 33 91 -17 91 -16 0 -33 -5 -40 -12z"/>
    <path d="M802 5528 c-35 -35 14 -102 57 -79 45 25 33 91 -17 91 -16 0 -33 -5 -40 -12z"/>
    <path d="M1082 5528 c-35 -35 14 -102 57 -78 20 10 26 27 21 60 -4 29 -55 41 -78 18z"/>
    <path d="M1356 5519 c-30 -43 20 -93 63 -63 23 17 28 53 9 72 -19 19 -55 14 -72 -9z"/>
    <path d="M1635 5516 c-18 -27 -11 -52 17 -67 42 -23 90 45 56 79 -20 20 -56 14 -73 -12z"/>
    <path d="M1910 5514 c-19 -49 27 -87 69 -57 23 16 28 52 9 71 -7 7 -25 12 -40 12 -21 0 -31 -6 -38 -26z"/>
    <path d="M2190 5520 c-14 -26 -5 -57 21 -71 43 -23 92 44 57 79 -20 20 -66 15 -78 -8z"/>
    <path d="M2470 5520 c-14 -26 -5 -57 21 -71 43 -23 92 44 57 79 -20 20 -66 15 -78 -8z"/>
    <path d="M2752 5528 c-20 -20 -14 -56 13 -74 23 -15 27 -15 50 0 44 29 28 86 -25 86 -14 0 -31 -5 -38 -12z"/>
    <path d="M671 5433 c-23 -16 -28 -52 -9 -71 21 -21 67 -15 79 12 22 47 -28 89 -70 59z"/>
    <path d="M950 5433 c-25 -17 -24 -60 1 -76 24 -15 66 -1 72 25 13 46 -33 79 -73 51z"/>
    <path d="M1231 5434 c-38 -27 -22 -84 25 -84 29 0 46 23 42 56 -4 34 -37 48 -67 28z"/>
    <path d="M1514 5440 c-45 -17 -29 -90 20 -90 31 0 48 22 44 56 -3 31 -32 45 -64 34z"/>
    <path d="M382 5428 c-15 -15 -15 -51 0 -66 7 -7 25 -12 40 -12 36 0 56 36 39 69 -13 23 -59 29 -79 9z"/>
    <path d="M1768 5415 c-9 -21 -8 -28 7 -45 32 -36 85 -20 85 25 0 49 -71 65 -92 20z"/>
    <path d="M2049 5419 c-17 -33 3 -69 39 -69 33 0 52 16 52 45 0 29 -19 45 -52 45 -18 0 -31 -7 -39 -21z"/>
    <path d="M2329 5419 c-17 -33 3 -69 39 -69 33 0 52 16 52 45 0 29 -19 45 -52 45 -18 0 -31 -7 -39 -21z"/>
    <path d="M2610 5424 c-21 -25 -1 -68 33 -72 16 -2 35 2 43 9 17 14 18 51 2 67 -17 17 -63 15 -78 -4z"/>
    <path d="M252 5334 c-27 -18 -27 -61 -1 -77 50 -31 105 38 59 75 -27 22 -30 22 -58 2z"/>
    <path d="M532 5334 c-27 -18 -27 -61 -1 -77 50 -31 105 38 59 75 -27 22 -30 22 -58 2z"/>
    <path d="M807 5332 c-32 -35 -15 -82 28 -82 23 0 55 28 55 48 0 16 -37 52 -53 52 -8 0 -21 -8 -30 -18z"/>
    <path d="M1088 5339 c-21 -12 -24 -59 -6 -77 7 -7 21 -12 33 -12 12 0 26 5 33 12 19 19 15 66 -7 78 -24 12 -31 12 -53 -1z"/>
    <path d="M1368 5338 c-24 -20 -28 -44 -12 -67 17 -23 53 -28 72 -9 19 19 15 66 -7 78 -25 13 -34 13 -53 -2z"/>
    <path d="M1640 5330 c-24 -24 -24 -29 -4 -58 17 -24 53 -29 72 -10 17 17 15 54 -4 72 -21 21 -40 20 -64 -4z"/>
    <path d="M1920 5330 c-24 -24 -24 -29 -4 -58 17 -24 53 -29 72 -10 19 19 14 55 -10 72 -29 20 -34 20 -58 -4z"/>
    <path d="M2200 5330 c-24 -24 -25 -43 -4 -64 18 -19 55 -21 72 -4 18 18 15 53 -6 71 -24 22 -38 21 -62 -3z"/>
    <path d="M2480 5332 c-46 -37 9 -106 59 -75 26 16 26 59 -1 77 -28 20 -31 20 -58 -2z"/>
    <path d="M2762 5334 c-41 -29 -23 -84 28 -84 32 0 50 17 50 46 0 20 -32 54 -50 54 -3 0 -16 -7 -28 -16z"/>
    <path d="M386 5231 c-35 -39 -4 -90 47 -77 35 8 46 49 22 76 -23 25 -47 25 -69 1z"/>
    <path d="M668 5239 c-21 -12 -24 -59 -6 -77 18 -18 53 -15 71 6 22 24 21 45 -1 65 -21 19 -39 21 -64 6z"/>
    <path d="M948 5239 c-21 -12 -24 -59 -6 -77 19 -19 55 -14 72 10 20 29 20 34 -4 58 -22 22 -37 24 -62 9z"/>
    <path d="M1500 5230 c-24 -24 -24 -29 -4 -58 17 -24 53 -29 72 -10 19 19 15 66 -7 78 -28 14 -38 13 -61 -10z"/>
    <path d="M1774 5225 c-15 -23 -15 -27 0 -50 28 -42 86 -28 86 21 0 52 -58 71 -86 29z"/>
    <path d="M2054 5225 c-15 -23 -15 -27 0 -50 28 -42 86 -28 86 21 0 52 -58 71 -86 29z"/>
    <path d="M2335 5230 c-23 -26 -13 -68 19 -76 55 -13 88 43 48 79 -24 22 -45 21 -67 -3z"/>
    <path d="M2615 5230 c-22 -24 -13 -66 15 -75 52 -16 90 36 55 75 -10 11 -26 20 -35 20 -9 0 -25 -9 -35 -20z"/>
    <path d="M2897 5232 c-23 -25 -21 -59 4 -72 52 -28 102 28 64 70 -23 25 -47 25 -68 2z"/>
    <path d="M808 5139 c-25 -14 -24 -65 1 -79 31 -16 49 -12 67 15 15 23 15 27 0 50 -17 26 -40 31 -68 14z"/>
    <path d="M1634 5125 c-15 -23 -15 -27 0 -50 29 -44 86 -28 86 25 0 53 -57 69 -86 25z"/>
    <path d="M1914 5125 c-15 -23 -15 -27 0 -50 28 -43 86 -26 86 25 0 51 -58 68 -86 25z"/>
    <path d="M2194 5125 c-15 -23 -15 -27 0 -50 19 -29 47 -32 70 -9 31 30 9 84 -34 84 -11 0 -27 -11 -36 -25z"/>
    <path d="M2477 5132 c-21 -23 -22 -46 -1 -66 30 -31 84 -9 84 34 0 24 -26 50 -49 50 -10 0 -25 -8 -34 -18z"/>
    <path d="M2756 5134 c-9 -8 -16 -24 -16 -34 0 -10 7 -26 16 -34 30 -30 84 -9 84 33 0 22 -30 51 -53 51 -8 0 -23 -7 -31 -16z"/>
    <path d="M662 5038 c-22 -22 -15 -67 12 -80 31 -14 53 -5 68 27 9 21 8 28 -7 45 -20 22 -55 26 -73 8z"/>
    <path d="M1774 5025 c-15 -23 -15 -27 0 -50 27 -42 86 -26 86 23 0 55 -56 72 -86 27z"/>
    <path d="M2054 5025 c-15 -23 -15 -27 0 -50 28 -42 86 -23 86 29 0 49 -58 63 -86 21z"/>
    <path d="M2336 5034 c-21 -20 -20 -37 2 -64 38 -47 102 5 72 59 -13 25 -52 28 -74 5z"/>
    <path d="M2610 5031 c-5 -11 -10 -26 -10 -34 0 -18 32 -47 52 -47 19 0 48 32 48 53 0 42 -70 64 -90 28z"/>
    <path d="M2898 5039 c-36 -20 -12 -89 31 -89 10 0 25 8 34 18 42 47 -10 103 -65 71z"/>
    <path d="M1916 4931 c-32 -35 8 -91 54 -76 24 7 37 51 23 74 -15 24 -56 25 -77 2z"/>
    <path d="M2196 4934 c-9 -8 -16 -22 -16 -30 0 -18 36 -54 54 -54 37 0 61 61 34 88 -17 17 -54 15 -72 -4z"/>
    <path d="M2468 4926 c-14 -31 -5 -53 27 -68 21 -9 28 -8 45 7 39 35 20 85 -32 85 -20 0 -32 -7 -40 -24z"/>
    <path d="M2751 4931 c-16 -28 -14 -46 7 -64 25 -22 45 -21 67 3 15 16 17 26 9 48 -12 35 -67 44 -83 13z"/>
    <path d="M3032 4938 c-18 -18 -14 -53 8 -73 17 -15 24 -16 45 -7 32 15 41 37 27 68 -13 27 -58 34 -80 12z"/>
    <path d="M2050 4830 c-14 -26 -5 -57 21 -71 43 -23 92 44 57 79 -20 20 -66 15 -78 -8z"/>
    <path d="M2330 4830 c-14 -26 -5 -57 21 -71 43 -23 92 44 57 79 -20 20 -66 15 -78 -8z"/>
    <path d="M2610 4831 c-16 -31 -12 -49 15 -67 23 -15 27 -15 50 0 27 18 33 54 13 74 -19 19 -66 15 -78 -7z"/>
    <path d="M2892 4838 c-20 -20 -14 -56 13 -74 23 -15 27 -15 50 0 44 29 28 86 -25 86 -14 0 -31 -5 -38 -12z"/>
    <path d="M3172 4838 c-35 -35 14 -102 57 -79 45 25 33 91 -17 91 -16 0 -33 -5 -40 -12z"/>
    <path d="M1909 4729 c-14 -27 1 -64 30 -72 44 -11 81 49 49 81 -20 20 -66 14 -79 -9z"/>
    <path d="M2189 4729 c-14 -27 1 -64 30 -72 44 -11 81 49 49 81 -20 20 -66 14 -79 -9z"/>
    <path d="M2469 4729 c-17 -33 3 -69 39 -69 33 0 52 16 52 45 0 29 -19 45 -52 45 -18 0 -31 -7 -39 -21z"/>
    <path d="M2750 4736 c-16 -21 -9 -56 15 -72 42 -28 97 33 65 72 -7 7 -25 14 -40 14 -15 0 -33 -7 -40 -14z"/>
    <path d="M3032 4738 c-33 -33 8 -95 52 -79 28 11 44 55 26 75 -15 19 -61 21 -78 4z"/>
    <path d="M3312 4738 c-32 -32 5 -92 49 -81 29 8 44 45 30 72 -13 23 -59 29 -79 9z"/>
    <path d="M2060 4640 c-24 -24 -25 -43 -4 -64 18 -19 55 -21 72 -4 19 19 14 55 -10 72 -29 20 -34 20 -58 -4z" style="fill: rgb(208, 16, 16);"/>
    <path d="M2340 4640 c-23 -23 -24 -33 -10 -61 12 -22 59 -26 78 -7 19 19 14 55 -10 72 -29 20 -34 20 -58 -4z"/>
    <path d="M2619 4641 c-20 -16 -22 -23 -14 -47 18 -52 95 -42 95 12 0 20 -32 54 -51 54 -4 0 -17 -9 -30 -19z"/>
    <path d="M2902 4644 c-12 -8 -22 -26 -22 -38 0 -54 77 -64 95 -12 8 24 6 31 -14 47 -28 23 -31 23 -59 3z"/>
    <path d="M3182 4644 c-12 -8 -22 -26 -22 -38 0 -54 77 -64 95 -12 8 24 6 31 -14 47 -28 23 -31 23 -59 3z"/>
    <path d="M3462 4644 c-24 -17 -29 -53 -10 -72 27 -27 88 -3 88 34 0 15 -35 54 -48 54 -4 0 -18 -7 -30 -16z"/>
    <path d="M2200 4540 c-24 -24 -25 -43 -4 -64 18 -19 55 -21 72 -4 18 18 15 53 -6 71 -24 22 -38 21 -62 -3z"/>
    <path d="M2480 4542 c-43 -35 -4 -94 50 -77 28 9 37 51 15 75 -22 25 -37 25 -65 2z"/>
    <path d="M2760 4542 c-43 -35 -4 -94 50 -77 28 9 37 51 15 75 -22 25 -37 25 -65 2z"/>
    <path d="M3037 4542 c-23 -25 -21 -59 4 -72 54 -30 106 34 59 72 -28 23 -43 23 -63 0z"/>
    <path d="M3317 4542 c-46 -51 19 -115 67 -66 21 21 20 40 -4 64 -25 25 -42 25 -63 2z"/>
    <path d="M2054 4435 c-15 -23 -15 -27 0 -50 26 -40 86 -26 86 20 0 53 -58 73 -86 30z"/>
    <path d="M2337 4442 c-22 -24 -21 -45 1 -65 23 -21 46 -22 66 -1 30 30 9 84 -33 84 -10 0 -25 -8 -34 -18z"/>
    <path d="M2615 4440 c-35 -39 3 -91 55 -75 28 9 37 51 15 75 -10 11 -26 20 -35 20 -9 0 -25 -9 -35 -20z"/>
    <path d="M2896 4444 c-9 -8 -16 -24 -16 -34 0 -10 7 -26 16 -34 30 -30 84 -9 84 33 0 22 -30 51 -53 51 -8 0 -23 -7 -31 -16z"/>
    <path d="M3175 4444 c-43 -43 19 -110 65 -69 25 23 26 47 2 68 -23 21 -46 21 -67 1z"/>
    <path d="M3458 4449 c-25 -14 -24 -65 1 -79 31 -16 49 -12 67 15 15 23 15 27 0 50 -17 26 -40 31 -68 14z"/>
    <path d="M2194 4339 c-17 -19 -17 -23 -3 -47 17 -32 50 -39 73 -17 20 21 21 49 0 69 -21 22 -47 20 -70 -5z"/>
    <path d="M2476 4344 c-21 -21 -20 -47 2 -67 23 -21 46 -22 66 -1 31 30 9 84 -34 84 -10 0 -26 -7 -34 -16z"/>
    <path d="M2756 4344 c-30 -30 -9 -84 33 -84 22 0 51 30 51 53 0 21 -27 47 -50 47 -10 0 -26 -7 -34 -16z"/>
    <path d="M3036 4344 c-30 -30 -9 -84 33 -84 21 0 51 30 51 52 0 19 -32 48 -53 48 -8 0 -23 -7 -31 -16z"/>
    <path d="M3311 4346 c-38 -46 25 -111 69 -71 25 23 26 47 2 68 -23 21 -56 22 -71 3z"/>
    <path d="M3592 4348 c-19 -19 -15 -66 7 -78 31 -16 49 -12 67 15 15 23 15 27 0 50 -18 27 -54 33 -74 13z"/>
    <path d="M2330 4240 c-15 -28 -4 -59 26 -72 19 -9 28 -8 44 7 22 20 26 55 8 73 -20 20 -66 15 -78 -8z"/>
    <path d="M2609 4236 c-15 -32 -6 -53 26 -68 22 -10 29 -9 47 10 18 18 20 26 12 49 -7 22 -17 29 -42 31 -26 3 -34 -1 -43 -22z"/>
    <path d="M2892 4248 c-27 -27 0 -88 40 -88 19 0 48 32 48 53 0 38 -61 62 -88 35z"/>
    <path d="M3172 4248 c-18 -18 -14 -53 9 -74 19 -17 23 -17 47 -3 32 17 39 50 17 73 -19 19 -56 21 -73 4z"/>
    <path d="M3452 4248 c-17 -17 -15 -54 4 -72 21 -21 40 -20 64 4 24 24 25 43 4 64 -18 19 -55 21 -72 4z"/>
    <path d="M2190 4140 c-15 -28 -4 -59 26 -72 19 -9 28 -8 44 7 22 20 26 55 8 73 -20 20 -66 15 -78 -8z"/>
    <path d="M2470 4140 c-14 -26 -5 -57 21 -71 43 -23 92 44 57 79 -20 20 -66 15 -78 -8z"/>
    <path d="M2750 4141 c-16 -31 -12 -49 15 -67 23 -15 27 -15 50 0 27 18 33 54 13 74 -19 19 -66 15 -78 -7z"/>
    <path d="M3032 4148 c-20 -20 -14 -56 13 -74 23 -15 27 -15 50 0 27 18 31 36 15 67 -12 22 -59 26 -78 7z"/>
    <path d="M3312 4148 c-35 -35 14 -102 57 -79 45 25 33 91 -17 91 -16 0 -33 -5 -40 -12z"/>
    <path d="M3592 4148 c-31 -31 6 -96 47 -83 52 16 46 95 -7 95 -15 0 -33 -5 -40 -12z"/>
    <path d="M2329 4039 c-14 -27 1 -64 30 -72 44 -11 81 49 49 81 -20 20 -66 14 -79 -9z"/>
    <path d="M2609 4039 c-17 -33 3 -69 39 -69 33 0 52 16 52 45 0 29 -19 45 -52 45 -18 0 -31 -7 -39 -21z"/>
    <path d="M2892 4048 c-7 -7 -12 -21 -12 -33 0 -28 19 -45 50 -45 31 0 50 17 50 45 0 28 -19 45 -50 45 -14 0 -31 -5 -38 -12z"/>
    <path d="M3172 4048 c-7 -7 -12 -21 -12 -33 0 -29 19 -45 52 -45 36 0 56 36 39 69 -13 23 -59 29 -79 9z"/>
    <path d="M3452 4048 c-32 -32 5 -92 49 -81 29 8 44 45 30 72 -13 23 -59 29 -79 9z"/>
    <path d="M3732 4048 c-33 -33 7 -95 51 -79 47 18 38 91 -11 91 -15 0 -33 -5 -40 -12z"/>
    <path d="M2480 3950 c-23 -23 -24 -33 -10 -61 12 -22 59 -26 78 -7 19 19 14 55 -10 72 -29 20 -34 20 -58 -4z"/>
    <path d="M2762 3954 c-12 -8 -22 -26 -22 -38 0 -54 77 -64 95 -12 8 24 6 31 -14 47 -28 23 -31 23 -59 3z"/>
    <path d="M3042 3954 c-12 -8 -22 -26 -22 -38 0 -54 77 -64 95 -12 8 24 6 31 -14 47 -28 23 -31 23 -59 3z"/>
    <path d="M3322 3954 c-24 -17 -29 -53 -10 -72 19 -19 66 -15 78 7 14 28 13 38 -10 61 -24 24 -29 24 -58 4z"/>
    <path d="M3600 3953 c-25 -17 -24 -60 1 -76 24 -15 66 -1 72 25 13 46 -33 79 -73 51z"/>
    <path d="M2620 3852 c-30 -24 -21 -69 15 -78 35 -9 53 1 61 32 6 21 2 31 -16 46 -12 10 -26 18 -30 18 -4 0 -18 -8 -30 -18z"/>
    <path d="M2902 3854 c-27 -18 -27 -61 -1 -77 50 -31 105 38 59 75 -27 22 -30 22 -58 2z"/>
    <path d="M3182 3854 c-27 -18 -27 -61 -1 -77 50 -31 105 38 59 75 -27 22 -30 22 -58 2z"/>
    <path d="M3456 3854 c-19 -18 -21 -55 -4 -72 18 -18 53 -15 71 6 22 24 21 38 -3 62 -24 24 -43 25 -64 4z"/>
    <path d="M3738 3859 c-21 -12 -24 -59 -6 -77 19 -19 55 -14 72 9 16 23 12 47 -12 67 -19 14 -31 15 -54 1z"/>
    <path d="M2755 3750 c-35 -39 3 -91 55 -75 28 9 37 51 15 75 -10 11 -26 20 -35 20 -9 0 -25 -9 -35 -20z"/>
    <path d="M3036 3754 c-23 -22 -20 -61 5 -74 52 -28 102 28 64 70 -22 24 -48 26 -69 4z"/>
    <path d="M3316 3757 c-28 -20 -18 -69 16 -81 53 -19 91 47 46 78 -27 19 -39 20 -62 3z"/>
    <path d="M3598 3759 c-21 -12 -24 -59 -6 -77 19 -19 55 -14 72 10 20 29 20 34 -4 58 -22 22 -37 24 -62 9z"/>
    <path d="M3878 3759 c-21 -12 -24 -59 -6 -77 7 -7 21 -12 33 -12 12 0 26 5 33 12 19 19 15 66 -7 78 -24 12 -31 12 -53 -1z"/>
    <path d="M2896 3654 c-30 -30 -9 -84 33 -84 21 0 51 30 51 52 0 19 -32 48 -53 48 -8 0 -23 -7 -31 -16z"/>
    <path d="M3176 3657 c-28 -20 -18 -69 16 -81 51 -18 89 42 50 77 -22 20 -42 21 -66 4z"/>
    <path d="M3458 3659 c-28 -16 -23 -67 6 -81 31 -14 53 -5 68 27 9 21 8 28 -7 45 -20 22 -41 25 -67 9z"/>
    <path d="M3732 3658 c-7 -7 -12 -24 -12 -40 0 -50 66 -62 91 -17 23 43 -44 92 -79 57z"/>
    <path d="M4012 3658 c-20 -20 -14 -66 9 -79 33 -17 69 3 69 39 0 33 -16 52 -45 52 -12 0 -26 -5 -33 -12z"/>
    <path d="M2756 3554 c-22 -21 -20 -47 5 -70 19 -17 23 -17 47 -3 32 17 39 50 17 73 -21 20 -49 21 -69 0z"/>
    <path d="M3032 3558 c-26 -26 -3 -88 31 -88 22 0 57 31 57 50 0 40 -60 66 -88 38z"/>
    <path d="M3312 3558 c-27 -27 -3 -88 34 -88 18 0 54 36 54 53 0 36 -63 60 -88 35z"/>
    <path d="M3592 3558 c-7 -7 -12 -24 -12 -40 0 -50 66 -62 91 -17 23 43 -44 92 -79 57z"/>
    <path d="M3872 3558 c-20 -20 -14 -66 9 -79 33 -17 69 3 69 39 0 33 -16 52 -45 52 -12 0 -26 -5 -33 -12z"/>
    <path d="M4152 3558 c-20 -20 -14 -66 9 -79 33 -17 69 3 69 39 0 33 -16 52 -45 52 -12 0 -26 -5 -33 -12z"/>
    <path d="M4427 3549 c-30 -42 12 -92 59 -70 27 12 33 58 12 79 -19 19 -55 14 -71 -9z"/>
    <path d="M2892 3458 c-20 -20 -14 -56 13 -74 23 -15 27 -15 50 0 27 18 31 36 15 67 -12 22 -59 26 -78 7z"/>
    <path d="M3172 3458 c-20 -20 -14 -56 13 -74 23 -15 27 -15 50 0 27 18 31 36 15 67 -12 22 -59 26 -78 7z"/>
    <path d="M3452 3458 c-13 -13 -16 -47 -4 -64 4 -6 17 -14 29 -18 24 -8 63 22 63 48 0 37 -61 61 -88 34z"/>
    <path d="M3732 3458 c-26 -26 -3 -88 32 -88 17 0 42 21 49 41 14 40 -51 77 -81 47z"/>
    <path d="M4012 3458 c-20 -20 -14 -66 9 -79 33 -17 69 3 69 39 0 33 -16 52 -45 52 -12 0 -26 -5 -33 -12z"/>
    <path d="M4292 3458 c-34 -34 2 -98 48 -83 24 7 37 51 23 74 -13 20 -54 26 -71 9z"/>
    <path d="M4567 3450 c-27 -39 8 -89 53 -75 24 7 37 51 23 74 -16 25 -59 26 -76 1z"/>
    <path d="M3032 3358 c-33 -33 7 -95 51 -79 32 12 43 35 29 65 -13 28 -58 36 -80 14z"/>
    <path d="M3312 3358 c-32 -32 5 -92 49 -81 29 8 44 45 30 72 -13 23 -59 29 -79 9z"/>
    <path d="M3592 3358 c-31 -31 5 -92 49 -81 51 14 43 93 -9 93 -15 0 -33 -5 -40 -12z"/>
    <path d="M3872 3358 c-33 -33 8 -95 52 -79 24 9 31 31 22 67 -5 18 -13 24 -34 24 -15 0 -33 -5 -40 -12z"/>
    <path d="M4152 3358 c-29 -29 -8 -80 33 -80 30 0 45 15 45 48 0 26 -18 44 -45 44 -12 0 -26 -5 -33 -12z"/>
    <path d="M4421 3348 c-18 -50 27 -90 68 -62 23 17 28 53 9 72 -21 21 -68 15 -77 -10z"/>
    <path d="M3182 3264 c-24 -17 -29 -53 -10 -72 19 -19 66 -15 78 7 14 28 13 38 -10 61 -24 24 -29 24 -58 4z"/>
    <path d="M3461 3263 c-23 -16 -28 -52 -9 -71 21 -21 67 -15 79 12 22 47 -28 89 -70 59z"/>
    <path d="M3741 3264 c-23 -17 -28 -53 -9 -72 21 -21 68 -15 77 11 18 49 -27 89 -68 61z"/>
    <path d="M4028 3272 c-22 -4 -35 -49 -21 -71 13 -21 57 -26 72 -7 31 37 -4 89 -51 78z"/>
    <path d="M4302 3269 c-16 -6 -22 -17 -22 -37 0 -35 20 -55 51 -50 29 4 43 29 36 60 -8 29 -32 39 -65 27z"/>
    <path d="M4584 3270 c-25 -10 -34 -37 -23 -68 10 -26 59 -31 79 -8 29 36 -13 93 -56 76z"/>
    <path d="M3608 3173 c-22 -5 -35 -50 -21 -72 16 -26 59 -26 77 1 20 29 20 34 -4 58 -20 20 -22 21 -52 13z"/>
    <path d="M3876 3164 c-32 -31 -14 -84 29 -84 29 0 45 19 45 52 0 42 -45 62 -74 32z"/>
    <path d="M4158 3169 c-21 -12 -24 -59 -6 -77 7 -7 21 -12 33 -12 12 0 26 5 33 12 19 19 15 66 -7 78 -24 12 -31 12 -53 -1z"/>
    <path d="M4438 3168 c-24 -20 -28 -44 -12 -67 17 -23 53 -28 72 -9 17 17 15 54 -4 72 -19 19 -35 20 -56 4z"/>
    <path d="M4710 3160 c-33 -33 -12 -79 36 -80 36 0 58 44 36 76 -15 24 -50 26 -72 4z"/>
    <path d="M3738 3069 c-21 -12 -24 -59 -6 -77 19 -19 55 -14 72 9 16 23 12 47 -12 67 -19 14 -31 15 -54 1z"/>
    <path d="M4018 3069 c-21 -12 -24 -59 -6 -77 7 -7 21 -12 33 -12 12 0 26 5 33 12 19 19 15 66 -7 78 -24 12 -31 12 -53 -1z"/>
    <path d="M4298 3069 c-21 -12 -24 -59 -6 -77 7 -7 21 -12 33 -12 12 0 26 5 33 12 19 19 15 66 -7 78 -24 12 -31 12 -53 -1z"/>
    <path d="M4570 3060 c-24 -24 -24 -29 -4 -58 17 -24 53 -29 72 -10 19 19 15 66 -7 78 -28 14 -38 13 -61 -10z"/>
    <path d="M4850 3060 c-24 -24 -24 -29 -4 -58 17 -24 53 -29 72 -10 19 19 15 66 -7 78 -28 14 -38 13 -61 -10z"/>
    <path d="M1354 2955 c-15 -23 -15 -27 0 -50 30 -45 86 -28 86 27 0 49 -59 65 -86 23z"/>
    <path d="M3878 2969 c-29 -16 -23 -67 8 -81 33 -15 58 -1 62 36 6 47 -29 69 -70 45z"/>
    <path d="M4158 2969 c-21 -12 -24 -59 -6 -77 7 -7 21 -12 33 -12 28 0 45 19 45 50 0 44 -33 62 -72 39z"/>
    <path d="M4424 2955 c-15 -23 -15 -27 0 -50 28 -43 86 -26 86 25 0 51 -58 68 -86 25z"/>
    <path d="M4704 2955 c-15 -23 -15 -27 0 -50 28 -43 86 -26 86 25 0 51 -58 68 -86 25z"/>
    <path d="M4987 2962 c-22 -25 -21 -45 3 -67 30 -27 74 -10 78 30 6 49 -48 73 -81 37z"/>
    <path d="M942 2868 c-7 -7 -12 -24 -12 -40 0 -50 66 -62 91 -17 23 43 -44 92 -79 57z"/>
    <path d="M1222 2868 c-20 -20 -14 -66 9 -79 33 -17 69 3 69 39 0 33 -16 52 -45 52 -12 0 -26 -5 -33 -12z"/>
    <path d="M1495 2856 c-13 -19 -14 -29 -6 -45 25 -45 91 -33 91 17 0 54 -56 72 -85 28z"/>
    <path d="M3732 2868 c-20 -20 -14 -66 9 -79 27 -14 64 1 72 30 11 44 -49 81 -81 49z"/>
    <path d="M4012 2868 c-20 -20 -14 -66 9 -79 33 -17 69 3 69 39 0 33 -16 52 -45 52 -12 0 -26 -5 -33 -12z"/>
    <path d="M4292 2868 c-20 -20 -14 -66 9 -79 33 -17 69 3 69 39 0 33 -16 52 -45 52 -12 0 -26 -5 -33 -12z"/>
    <path d="M4565 2856 c-13 -19 -14 -29 -6 -45 25 -45 91 -33 91 17 0 54 -56 72 -85 28z"/>
    <path d="M4845 2857 c-18 -27 -12 -53 17 -68 27 -15 57 -2 64 28 14 55 -50 87 -81 40z"/>
    <path d="M5126 2864 c-21 -21 -20 -47 2 -67 24 -22 45 -21 65 1 45 49 -20 113 -67 66z"/>
    <path d="M1082 2768 c-20 -20 -14 -66 9 -79 27 -14 64 1 72 30 11 44 -49 81 -81 49z"/>
    <path d="M1357 2759 c-30 -42 12 -92 59 -70 27 12 33 58 12 79 -19 19 -55 14 -71 -9z"/>
    <path d="M4152 2768 c-20 -20 -14 -66 9 -79 33 -17 69 3 69 39 0 33 -16 52 -45 52 -12 0 -26 -5 -33 -12z"/>
    <path d="M4427 2760 c-27 -39 8 -89 53 -75 24 7 37 51 23 74 -16 25 -59 26 -76 1z"/>
    <path d="M4705 2757 c-18 -27 -12 -53 17 -68 27 -15 57 -2 64 28 14 55 -50 87 -81 40z"/>
    <path d="M4986 2764 c-21 -21 -20 -40 4 -64 24 -24 29 -24 58 -4 24 17 29 53 10 72 -17 17 -54 15 -72 -4z"/>
    <path d="M5266 2764 c-23 -23 -20 -51 9 -70 23 -15 27 -15 50 0 27 18 33 54 13 74 -17 17 -54 15 -72 -4z"/>
    <path d="M942 2668 c-29 -29 -8 -80 34 -80 47 0 68 59 30 84 -17 12 -51 9 -64 -4z"/>
    <path d="M1216 2659 c-28 -41 12 -86 62 -68 25 9 31 56 10 77 -19 19 -55 14 -72 -9z"/>
    <path d="M1495 2657 c-18 -28 -11 -56 19 -66 31 -12 56 -1 63 27 13 54 -51 85 -82 39z"/>
    <path d="M4292 2668 c-6 -6 -12 -25 -12 -40 0 -31 28 -49 62 -40 22 5 35 49 21 71 -13 20 -54 26 -71 9z"/>
    <path d="M4561 2658 c-18 -50 27 -90 68 -62 23 17 28 53 9 72 -21 21 -68 15 -77 -10z"/>
    <path d="M4839 2659 c-14 -27 1 -64 30 -72 44 -11 81 49 49 81 -20 20 -66 14 -79 -9z"/>
    <path d="M5120 2660 c-14 -26 -5 -57 21 -71 43 -23 92 44 57 79 -20 20 -66 15 -78 -8z"/>
    <path d="M5402 2668 c-7 -7 -12 -21 -12 -33 0 -28 19 -45 50 -45 31 0 50 17 50 45 0 28 -19 45 -50 45 -14 0 -31 -5 -38 -12z"/>
    <path d="M1091 2574 c-23 -17 -28 -53 -9 -72 21 -21 68 -15 77 11 18 49 -27 89 -68 61z"/>
    <path d="M1374 2579 c-48 -17 -27 -93 23 -87 33 4 48 27 40 60 -7 28 -32 39 -63 27z"/>
    <path d="M4168 2582 c-21 -4 -33 -41 -23 -71 5 -16 15 -21 40 -21 25 0 35 5 40 21 15 47 -12 81 -57 71z"/>
    <path d="M4444 2580 c-25 -10 -34 -37 -23 -68 10 -26 59 -31 79 -8 29 36 -13 93 -56 76z"/>
    <path d="M4724 2580 c-27 -11 -36 -34 -24 -65 18 -48 96 -26 88 26 -4 29 -37 49 -64 39z"/>
    <path d="M5003 2580 c-48 -19 -36 -90 16 -90 16 0 34 7 41 14 29 36 -13 93 -57 76z"/>
    <path d="M5542 2568 c-7 -7 -12 -21 -12 -33 0 -28 19 -45 50 -45 31 0 50 17 50 45 0 28 -19 45 -50 45 -14 0 -31 -5 -38 -12z"/>
    <path d="M1228 2479 c-21 -12 -24 -59 -6 -77 7 -7 21 -12 33 -12 12 0 26 5 33 12 19 19 15 66 -7 78 -24 12 -31 12 -53 -1z"/>
    <path d="M1500 2470 c-24 -24 -24 -29 -4 -58 17 -24 53 -29 72 -10 19 19 15 66 -7 78 -28 14 -38 13 -61 -10z"/>
    <path d="M4298 2479 c-21 -12 -24 -59 -6 -77 7 -7 21 -12 33 -12 12 0 26 5 33 12 19 19 15 66 -7 78 -24 12 -31 12 -53 -1z"/>
    <path d="M4570 2470 c-24 -24 -24 -29 -4 -58 17 -24 53 -29 72 -10 17 17 15 54 -4 72 -21 21 -40 20 -64 -4z"/>
    <path d="M4850 2470 c-23 -23 -24 -33 -10 -61 12 -22 59 -26 78 -7 19 19 14 55 -10 72 -29 20 -34 20 -58 -4z"/>
    <path d="M5692 2474 c-12 -8 -22 -26 -22 -38 0 -54 77 -64 95 -12 8 24 6 31 -14 47 -28 23 -31 23 -59 3z"/>
    <path d="M1088 2379 c-21 -12 -24 -59 -6 -77 19 -19 55 -14 72 9 16 23 12 47 -12 67 -19 14 -31 15 -54 1z"/>
    <path d="M1360 2370 c-24 -24 -24 -29 -4 -58 17 -24 53 -29 72 -10 19 19 15 66 -7 78 -28 14 -38 13 -61 -10z"/>
    <path d="M4438 2378 c-24 -20 -28 -44 -12 -67 17 -23 53 -28 72 -9 19 19 15 66 -7 78 -25 13 -34 13 -53 -2z"/>
    <path d="M4710 2370 c-24 -24 -24 -29 -4 -58 17 -24 53 -29 72 -10 17 17 15 54 -4 72 -21 21 -40 20 -64 -4z"/>
    <path d="M5827 2372 c-36 -39 -12 -86 40 -80 20 2 30 11 38 32 8 24 6 31 -14 47 -29 24 -43 24 -64 1z"/>
    <path d="M1228 2279 c-21 -12 -24 -59 -6 -77 7 -7 21 -12 33 -12 12 0 26 5 33 12 19 19 15 66 -7 78 -24 12 -31 12 -53 -1z"/>
    <path d="M1500 2270 c-24 -24 -24 -29 -4 -58 17 -24 53 -29 72 -10 19 19 15 66 -7 78 -28 14 -38 13 -61 -10z"/>
    <path d="M4564 2265 c-15 -23 -15 -27 0 -50 30 -45 86 -28 86 27 0 49 -59 65 -86 23z"/>
    <path d="M4844 2265 c-15 -23 -15 -27 0 -50 28 -43 86 -26 86 25 0 51 -58 68 -86 25z"/>
    <path d="M5686 2274 c-30 -30 -9 -84 33 -84 21 0 51 30 51 52 0 19 -32 48 -53 48 -8 0 -23 -7 -31 -16z"/>
    <path d="M1082 2178 c-20 -20 -14 -66 9 -79 33 -17 69 3 69 39 0 33 -16 52 -45 52 -12 0 -26 -5 -33 -12z"/>
    <path d="M1355 2166 c-13 -19 -14 -29 -6 -45 25 -45 91 -33 91 17 0 54 -56 72 -85 28z"/>
    <path d="M4704 2165 c-15 -23 -15 -27 0 -50 28 -43 86 -26 86 25 0 51 -58 68 -86 25z"/>
    <path d="M1222 2078 c-20 -20 -14 -66 9 -79 33 -17 69 3 69 39 0 33 -16 52 -45 52 -12 0 -26 -5 -33 -12z"/>
    <path d="M1495 2066 c-13 -19 -14 -29 -6 -45 25 -45 91 -33 91 17 0 54 -56 72 -85 28z"/>
    <path d="M4567 2070 c-27 -39 8 -89 53 -75 24 7 37 51 23 74 -16 25 -59 26 -76 1z"/>
    <path d="M4846 2074 c-21 -21 -20 -40 4 -64 25 -25 42 -25 63 -2 46 51 -19 115 -67 66z"/>
    <path d="M1082 1978 c-7 -7 -12 -25 -12 -40 0 -49 73 -58 91 -11 16 44 -46 84 -79 51z"/>
    <path d="M1356 1969 c-28 -41 12 -86 62 -68 25 9 31 56 10 77 -19 19 -55 14 -72 -9z"/>
    <path d="M4706 1974 c-19 -19 -20 -35 -3 -56 19 -24 43 -28 66 -12 23 17 28 53 9 72 -17 17 -54 15 -72 -4z"/>
    <path d="M4980 1970 c-14 -26 -5 -57 21 -71 43 -23 92 44 57 79 -20 20 -66 15 -78 -8z"/>
    <path d="M951 1883 c-23 -16 -28 -52 -9 -71 7 -7 25 -12 40 -12 21 0 31 6 38 26 19 49 -27 87 -69 57z"/>
    <path d="M1224 1874 c-24 -23 -25 -27 -11 -47 10 -15 24 -22 48 -22 33 0 34 1 34 39 0 31 -4 40 -23 47 -18 7 -28 3 -48 -17z"/>
    <path d="M1506 1876 c-20 -20 -24 -30 -17 -48 9 -27 54 -36 77 -17 21 17 14 59 -13 76 -20 14 -24 13 -47 -11z"/>
    <path d="M4863 1890 c-48 -19 -36 -90 16 -90 16 0 34 7 41 14 29 36 -13 93 -57 76z"/>
    <path d="M5143 1890 c-48 -19 -36 -90 16 -90 16 0 34 7 41 14 29 36 -13 93 -57 76z"/>
    <path d="M1087 1782 c-32 -35 -15 -82 29 -82 27 0 55 35 47 59 -7 19 -32 41 -48 41 -7 0 -19 -8 -28 -18z"/>
    <path d="M4722 1793 c-44 -18 -32 -93 16 -93 51 0 71 50 34 83 -19 17 -28 19 -50 10z"/>
    <path d="M4990 1780 c-23 -23 -24 -33 -10 -61 12 -22 59 -26 78 -7 19 19 14 55 -10 72 -29 20 -34 20 -58 -4z"/>
    <path d="M1228 1688 c-24 -20 -28 -44 -12 -67 17 -23 53 -28 72 -9 19 19 15 66 -7 78 -25 13 -34 13 -53 -2z"/>
    <path d="M4850 1680 c-24 -24 -25 -43 -4 -64 18 -19 55 -21 72 -4 17 17 15 54 -4 72 -21 21 -40 20 -64 -4z"/>
    <path d="M5125 1680 c-24 -27 -13 -68 22 -76 51 -13 82 38 47 77 -22 24 -46 24 -69 -1z"/>
    <path d="M4704 1575 c-15 -23 -15 -27 0 -50 28 -42 86 -28 86 21 0 52 -58 71 -86 29z"/>
    <path d="M4986 1578 c-21 -29 -20 -41 2 -61 35 -32 82 -15 82 29 0 50 -57 71 -84 32z"/>
    <path d="M4844 1475 c-15 -23 -15 -27 0 -50 28 -43 86 -23 86 30 0 46 -60 60 -86 20z"/>
    <path d="M4705 1377 c-18 -27 -12 -53 17 -68 27 -15 57 -2 64 28 14 55 -50 87 -81 40z"/>
    <path d="M4567 1279 c-18 -25 -11 -56 15 -70 42 -23 90 45 56 79 -19 19 -55 14 -71 -9z"/>
    <path d="M4846 1284 c-21 -21 -20 -40 4 -64 24 -24 29 -24 58 -4 24 17 29 53 10 72 -17 17 -54 15 -72 -4z"/>
    <path d="M4434 1192 c-35 -24 -18 -82 24 -82 33 0 52 16 52 45 0 37 -44 59 -76 37z"/>
    <path d="M4700 1174 c-14 -36 3 -64 38 -64 33 0 52 16 52 45 0 29 -19 45 -52 45 -21 0 -31 -6 -38 -26z"/>
    <path d="M4016 1094 c-32 -31 -14 -84 29 -84 29 0 45 19 45 52 0 42 -45 62 -74 32z"/>
    <path d="M4298 1099 c-21 -12 -24 -59 -6 -77 7 -7 21 -12 33 -12 43 0 61 53 29 84 -18 18 -32 20 -56 5z"/>
    <path d="M4582 1103 c-44 -18 -32 -93 16 -93 51 0 71 50 34 83 -19 17 -28 19 -50 10z"/>
    <path d="M3037 992 c-36 -39 -12 -86 40 -80 20 2 30 11 38 32 8 24 6 31 -14 47 -29 24 -43 24 -64 1z"/>
    <path d="M3317 992 c-46 -51 19 -115 67 -66 21 21 20 40 -4 64 -25 25 -42 25 -63 2z"/>
    <path d="M3596 994 c-32 -31 -14 -84 29 -84 47 1 68 47 36 79 -25 25 -44 26 -65 5z"/>
    <path d="M3876 994 c-32 -31 -14 -84 29 -84 29 0 45 19 45 52 0 42 -45 62 -74 32z"/>
    <path d="M4158 999 c-21 -12 -24 -59 -6 -77 7 -7 21 -12 33 -12 12 0 26 5 33 12 19 19 15 66 -7 78 -24 12 -31 12 -53 -1z"/>
    <path d="M3175 894 c-19 -20 -16 -63 6 -77 26 -16 68 0 75 29 12 48 -46 83 -81 48z"/>
    <path d="M3458 899 c-21 -12 -24 -59 -6 -77 20 -20 56 -14 74 13 15 23 15 27 0 50 -17 26 -40 31 -68 14z"/>
    <path d="M3738 899 c-22 -12 -24 -62 -4 -79 21 -16 56 -9 72 15 28 42 -24 91 -68 64z"/>
    <path d="M4018 899 c-21 -12 -24 -59 -6 -77 7 -7 21 -12 33 -12 28 0 45 19 45 50 0 44 -33 62 -72 39z"/>
    <path d="M3036 794 c-30 -30 -9 -84 33 -84 21 0 51 30 51 52 0 19 -32 48 -53 48 -8 0 -23 -7 -31 -16z"/>
    <path d="M3316 797 c-28 -20 -18 -69 16 -81 51 -18 89 42 50 77 -22 20 -42 21 -66 4z"/>
    <path d="M3598 799 c-21 -12 -24 -59 -6 -77 20 -20 56 -14 74 13 15 23 15 27 0 50 -17 26 -40 31 -68 14z"/>
    <path d="M3872 798 c-7 -7 -12 -24 -12 -38 0 -31 17 -50 45 -50 28 0 45 19 45 50 0 31 -17 50 -45 50 -12 0 -26 -5 -33 -12z"/>
    <path d="M4152 798 c-7 -7 -12 -24 -12 -38 0 -31 17 -50 45 -50 28 0 45 19 45 50 0 31 -17 50 -45 50 -12 0 -26 -5 -33 -12z"/>
    <path d="M3172 698 c-28 -28 -3 -88 37 -88 22 0 51 30 51 53 0 38 -61 62 -88 35z"/>
    <path d="M3452 698 c-22 -22 -15 -67 12 -80 31 -14 53 -5 68 27 9 21 8 28 -7 45 -20 22 -55 26 -73 8z"/>
    <path d="M3732 698 c-20 -20 -14 -66 9 -79 27 -14 64 1 72 30 11 44 -49 81 -81 49z"/>
    <path d="M4012 698 c-20 -20 -14 -66 9 -79 33 -17 69 3 69 39 0 33 -16 52 -45 52 -12 0 -26 -5 -33 -12z"/>
    <path d="M3592 598 c-27 -27 -3 -88 34 -88 26 0 56 39 48 63 -4 12 -12 25 -18 29 -17 12 -51 9 -64 -4z"/>
    <path d="M3872 598 c-20 -20 -14 -66 9 -79 33 -17 69 3 69 39 0 33 -16 52 -45 52 -12 0 -26 -5 -33 -12z"/>
    <path d="M4152 598 c-20 -20 -14 -66 9 -79 33 -17 69 3 69 39 0 33 -16 52 -45 52 -12 0 -26 -5 -33 -12z"/>
    <path d="M3732 498 c-32 -32 5 -92 49 -81 35 9 44 65 15 85 -17 12 -51 9 -64 -4z"/>
    <path d="M4010 496 c-29 -36 13 -92 58 -75 25 9 31 56 10 77 -16 16 -53 15 -68 -2z"/>
    <path d="M3881 404 c-24 -17 -28 -56 -7 -73 8 -7 27 -11 43 -9 25 3 28 7 28 42 0 46 -29 64 -64 40z"/>
    <path d="M4162 404 c-39 -27 -23 -84 24 -84 46 0 59 60 19 86 -18 12 -24 11 -43 -2z"/>
    <path d="M4018 309 c-21 -12 -24 -59 -6 -77 15 -15 51 -15 66 0 19 19 15 66 -7 78 -24 12 -31 12 -53 -1z"/>
    <path d="M4158 209 c-21 -12 -24 -59 -6 -77 7 -7 21 -12 33 -12 12 0 26 5 33 12 19 19 15 66 -7 78 -24 12 -31 12 -53 -1z"/>
  </g>
</svg>